<svg width="627" height="310" viewBox="0 0 627 310" fill="none" xmlns="http://www.w3.org/2000/svg">
<path d="M6.05633 248.06V162.495C6.05633 158.457 7.29865 155.351 9.7833 153.177C12.3715 151.003 15.322 149.916 18.6349 149.916H57.1469C61.0809 149.916 64.135 151.003 66.309 153.177C68.5866 155.248 69.7254 158.043 69.7254 161.563C69.7254 165.186 68.5866 168.033 66.309 170.104C64.135 172.174 61.0809 173.21 57.1469 173.21H31.2134V192.932H53.8858C57.8198 192.932 60.8739 193.967 63.0479 196.037C65.3255 198.108 66.4643 200.955 66.4643 204.578C66.4643 208.202 65.3255 211.049 63.0479 213.119C60.8739 215.19 57.8198 216.225 53.8858 216.225H31.2134V248.06C31.2134 252.511 30.0228 255.876 27.6417 258.154C25.2606 260.328 22.2583 261.415 18.6349 261.415C15.0114 261.415 12.0091 260.328 9.62801 258.154C7.24689 255.876 6.05633 252.511 6.05633 248.06ZM74.5916 248.836V189.515C74.5916 185.995 75.6786 183.045 77.8527 180.664C80.1303 178.179 83.0808 176.937 86.7043 176.937C90.0171 176.937 92.6571 177.817 94.6241 179.577C96.5911 181.233 97.9887 182.941 98.8169 184.701C100.887 182.32 103.32 180.198 106.116 178.334C109.014 176.367 112.172 175.384 115.588 175.384C118.694 175.384 121.541 176.523 124.129 178.8C126.717 181.078 128.012 184.132 128.012 187.962C128.012 190.033 127.597 191.793 126.769 193.242C126.045 194.588 125.009 195.727 123.663 196.659C122.318 197.59 120.713 198.418 118.849 199.143C116.986 199.764 114.967 200.385 112.793 201.007C110.205 201.731 107.979 202.56 106.116 203.491C104.356 204.32 102.906 205.407 101.767 206.752C100.732 207.995 99.9557 209.651 99.4381 211.722C99.024 213.689 98.8169 216.225 98.8169 219.331V248.836C98.8169 252.356 97.6781 255.358 95.4005 257.843C93.2265 260.224 90.3277 261.415 86.7043 261.415C83.0808 261.415 80.1303 260.224 77.8527 257.843C75.6786 255.358 74.5916 252.356 74.5916 248.836ZM195.806 227.095H152.014C152.014 228.338 152.272 229.787 152.79 231.444C153.411 232.996 154.446 234.446 155.896 235.792C157.345 237.138 159.312 238.276 161.797 239.208C164.385 240.14 167.594 240.606 171.425 240.606C174.427 240.606 177.119 240.243 179.5 239.519C181.985 238.69 184.21 237.811 186.178 236.879C188.248 235.843 190.112 234.964 191.768 234.239C193.424 233.411 194.926 232.996 196.271 232.996C198.963 232.996 201.292 233.98 203.259 235.947C205.33 237.811 206.365 240.295 206.365 243.401C206.365 246.3 205.226 248.991 202.949 251.476C200.775 253.857 197.876 255.928 194.253 257.688C190.629 259.344 186.54 260.638 181.985 261.57C177.429 262.502 172.874 262.968 168.319 262.968C161.797 262.968 155.896 261.829 150.616 259.551C145.44 257.274 140.988 254.168 137.261 250.234C133.638 246.3 130.842 241.693 128.875 236.413C126.908 231.029 125.925 225.284 125.925 219.176C125.925 213.378 126.96 207.839 129.031 202.56C131.101 197.28 134 192.621 137.727 188.583C141.557 184.546 146.061 181.337 151.237 178.955C156.413 176.574 162.107 175.384 168.319 175.384C174.324 175.384 179.707 176.574 184.469 178.955C189.335 181.233 193.476 184.287 196.893 188.118C200.309 191.845 202.949 196.193 204.812 201.162C206.676 206.131 207.608 211.256 207.608 216.536C207.608 220.78 206.624 223.627 204.657 225.077C202.69 226.423 199.74 227.095 195.806 227.095ZM152.014 210.479H183.382C183.382 209.134 183.02 207.632 182.295 205.976C181.571 204.216 180.484 202.611 179.034 201.162C177.688 199.713 176.032 198.47 174.065 197.435C172.201 196.4 170.079 195.882 167.698 195.882C165.317 195.882 163.143 196.4 161.176 197.435C159.312 198.47 157.656 199.713 156.206 201.162C154.861 202.611 153.825 204.216 153.101 205.976C152.376 207.632 152.014 209.134 152.014 210.479ZM211.282 246.196C211.282 242.78 212.266 239.985 214.233 237.811C216.2 235.636 218.529 234.549 221.221 234.549C223.084 234.549 224.844 234.912 226.501 235.636C228.261 236.361 230.021 237.189 231.781 238.121C233.644 238.949 235.559 239.726 237.526 240.45C239.597 241.175 241.926 241.537 244.515 241.537C246.999 241.537 248.759 241.072 249.794 240.14C250.83 239.105 251.347 237.966 251.347 236.723C251.347 235.481 250.985 234.498 250.26 233.773C249.639 232.945 248.552 232.168 246.999 231.444C245.55 230.719 243.635 229.942 241.253 229.114C238.872 228.182 235.974 227.044 232.557 225.698C229.451 224.456 226.708 223.161 224.327 221.816C221.946 220.47 219.927 218.969 218.27 217.312C216.718 215.552 215.527 213.533 214.699 211.256C213.871 208.875 213.456 206.079 213.456 202.87C213.456 199.454 214.181 196.089 215.631 192.776C217.08 189.463 219.15 186.513 221.842 183.925C224.534 181.337 227.795 179.266 231.625 177.713C235.456 176.16 239.804 175.384 244.67 175.384C247.154 175.384 250.001 175.694 253.211 176.315C256.42 176.937 259.422 177.92 262.218 179.266C265.116 180.612 267.549 182.424 269.516 184.701C271.587 186.875 272.622 189.515 272.622 192.621C272.622 195.623 271.639 198.108 269.672 200.075C267.808 201.938 265.427 202.87 262.528 202.87C261.286 202.87 259.94 202.56 258.491 201.938C257.041 201.317 255.488 200.644 253.832 199.92C252.176 199.091 250.416 198.367 248.552 197.746C246.792 197.124 244.98 196.814 243.117 196.814C241.46 196.814 239.959 197.228 238.614 198.056C237.371 198.884 236.75 200.178 236.75 201.938C236.75 203.491 237.682 204.837 239.545 205.976C241.409 207.011 243.738 208.046 246.533 209.082C249.329 210.117 252.383 211.256 255.695 212.498C259.008 213.74 262.062 215.345 264.858 217.312C267.653 219.279 269.982 221.764 271.846 224.766C273.709 227.665 274.641 231.34 274.641 235.792C274.641 240.036 273.813 243.867 272.156 247.283C270.5 250.596 268.222 253.443 265.323 255.824C262.528 258.102 259.215 259.862 255.385 261.104C251.658 262.346 247.724 262.968 243.583 262.968C239.752 262.968 235.922 262.605 232.091 261.881C228.261 261.156 224.793 260.069 221.687 258.619C218.581 257.17 216.045 255.41 214.078 253.34C212.214 251.269 211.282 248.888 211.282 246.196ZM281.595 248.836V153.488C281.595 149.968 282.682 147.017 284.856 144.636C287.134 142.152 290.084 140.909 293.708 140.909C297.331 140.909 300.23 142.152 302.404 144.636C304.682 147.017 305.82 149.968 305.82 153.488V181.44H306.131C308.616 179.887 311.463 178.49 314.672 177.247C317.985 176.005 321.971 175.384 326.629 175.384C330.874 175.384 334.808 175.953 338.431 177.092C342.055 178.127 345.212 179.835 347.904 182.217C350.699 184.494 352.873 187.445 354.426 191.068C355.979 194.692 356.756 198.988 356.756 203.957V248.836C356.756 252.356 355.617 255.358 353.339 257.843C351.165 260.224 348.266 261.415 344.643 261.415C341.019 261.415 338.069 260.224 335.791 257.843C333.617 255.358 332.53 252.356 332.53 248.836V210.479C332.53 206.235 331.34 202.767 328.959 200.075C326.681 197.28 323.42 195.882 319.175 195.882C314.931 195.882 311.618 197.28 309.237 200.075C306.959 202.767 305.82 206.235 305.82 210.479V248.836C305.82 252.356 304.682 255.358 302.404 257.843C300.23 260.224 297.331 261.415 293.708 261.415C290.084 261.415 287.134 260.224 284.856 257.843C282.682 255.358 281.595 252.356 281.595 248.836ZM367.884 248.836V153.488C367.884 149.968 368.971 147.017 371.145 144.636C373.423 142.152 376.374 140.909 379.997 140.909C383.62 140.909 386.519 142.152 388.693 144.636C390.971 147.017 392.11 149.968 392.11 153.488V205.044L411.832 185.322C413.902 183.252 415.921 181.337 417.888 179.577C419.958 177.817 422.495 176.937 425.497 176.937C429.121 176.937 431.968 178.075 434.038 180.353C436.212 182.527 437.299 185.115 437.299 188.118C437.299 190.292 436.574 192.259 435.125 194.019C433.779 195.779 431.657 198.056 428.758 200.851L415.714 213.74L436.057 239.519C437.299 241.072 438.541 242.832 439.784 244.799C441.13 246.662 441.803 248.474 441.803 250.234C441.803 251.373 441.544 252.615 441.026 253.961C440.612 255.307 439.887 256.549 438.852 257.688C437.92 258.723 436.678 259.603 435.125 260.328C433.676 261.052 431.916 261.415 429.845 261.415C427.05 261.415 424.772 260.845 423.012 259.706C421.356 258.568 419.234 256.394 416.646 253.184L392.42 221.505H392.11V248.836C392.11 252.356 390.971 255.358 388.693 257.843C386.519 260.224 383.62 261.415 379.997 261.415C376.374 261.415 373.423 260.224 371.145 257.843C368.971 255.358 367.884 252.356 367.884 248.836ZM445.064 248.836V189.515C445.064 185.995 446.151 183.045 448.325 180.664C450.602 178.179 453.553 176.937 457.176 176.937C460.8 176.937 463.699 178.179 465.873 180.664C468.15 183.045 469.289 185.995 469.289 189.515V248.836C469.289 252.356 468.15 255.358 465.873 257.843C463.699 260.224 460.8 261.415 457.176 261.415C453.553 261.415 450.602 260.224 448.325 257.843C446.151 255.358 445.064 252.356 445.064 248.836ZM442.734 155.351C442.734 153.281 443.097 151.417 443.821 149.761C444.65 148.001 445.685 146.448 446.927 145.102C448.273 143.756 449.826 142.721 451.586 141.996C453.346 141.272 455.209 140.909 457.176 140.909C459.143 140.909 461.007 141.272 462.767 141.996C464.527 142.721 466.028 143.756 467.27 145.102C468.616 146.448 469.651 148.001 470.376 149.761C471.204 151.417 471.618 153.281 471.618 155.351C471.618 157.318 471.204 159.182 470.376 160.942C469.651 162.702 468.616 164.255 467.27 165.6C466.028 166.946 464.527 167.982 462.767 168.706C461.007 169.431 459.143 169.793 457.176 169.793C455.209 169.793 453.346 169.431 451.586 168.706C449.826 167.982 448.273 166.946 446.927 165.6C445.685 164.255 444.65 162.702 443.821 160.942C443.097 159.182 442.734 157.318 442.734 155.351ZM479.954 248.836V189.515C479.954 185.995 481.041 183.045 483.215 180.664C485.493 178.179 488.444 176.937 492.067 176.937C495.38 176.937 498.02 177.817 499.987 179.577C501.954 181.233 503.351 182.941 504.18 184.701C506.147 181.699 508.787 179.421 512.099 177.868C515.412 176.212 519.709 175.384 524.989 175.384C529.233 175.384 533.167 175.953 536.791 177.092C540.414 178.127 543.572 179.835 546.263 182.217C549.059 184.494 551.233 187.445 552.786 191.068C554.338 194.692 555.115 198.988 555.115 203.957V248.836C555.115 252.356 553.976 255.358 551.698 257.843C549.524 260.224 546.626 261.415 543.002 261.415C539.379 261.415 536.428 260.224 534.151 257.843C531.977 255.358 530.89 252.356 530.89 248.836V210.479C530.89 206.235 529.699 202.767 527.318 200.075C525.04 197.28 521.779 195.882 517.535 195.882C513.29 195.882 509.977 197.28 507.596 200.075C505.318 202.767 504.18 206.235 504.18 210.479V248.836C504.18 252.356 503.041 255.358 500.763 257.843C498.589 260.224 495.69 261.415 492.067 261.415C488.444 261.415 485.493 260.224 483.215 257.843C481.041 255.358 479.954 252.356 479.954 248.836ZM562.051 246.196C562.051 242.78 563.034 239.985 565.001 237.811C566.968 235.636 569.298 234.549 571.989 234.549C573.853 234.549 575.613 234.912 577.269 235.636C579.029 236.361 580.789 237.189 582.549 238.121C584.413 238.949 586.328 239.726 588.295 240.45C590.365 241.175 592.695 241.537 595.283 241.537C597.768 241.537 599.528 241.072 600.563 240.14C601.598 239.105 602.116 237.966 602.116 236.723C602.116 235.481 601.753 234.498 601.029 233.773C600.408 232.945 599.321 232.168 597.768 231.444C596.318 230.719 594.403 229.942 592.022 229.114C589.641 228.182 586.742 227.044 583.326 225.698C580.22 224.456 577.476 223.161 575.095 221.816C572.714 220.47 570.695 218.969 569.039 217.312C567.486 215.552 566.295 213.533 565.467 211.256C564.639 208.875 564.225 206.079 564.225 202.87C564.225 199.454 564.95 196.089 566.399 192.776C567.848 189.463 569.919 186.513 572.611 183.925C575.302 181.337 578.563 179.266 582.394 177.713C586.224 176.16 590.572 175.384 595.438 175.384C597.923 175.384 600.77 175.694 603.979 176.315C607.189 176.937 610.191 177.92 612.986 179.266C615.885 180.612 618.318 182.424 620.285 184.701C622.355 186.875 623.391 189.515 623.391 192.621C623.391 195.623 622.407 198.108 620.44 200.075C618.577 201.938 616.195 202.87 613.297 202.87C612.054 202.87 610.708 202.56 609.259 201.938C607.81 201.317 606.257 200.644 604.6 199.92C602.944 199.091 601.184 198.367 599.321 197.746C597.561 197.124 595.749 196.814 593.885 196.814C592.229 196.814 590.728 197.228 589.382 198.056C588.14 198.884 587.518 200.178 587.518 201.938C587.518 203.491 588.45 204.837 590.314 205.976C592.177 207.011 594.507 208.046 597.302 209.082C600.097 210.117 603.151 211.256 606.464 212.498C609.777 213.74 612.831 215.345 615.626 217.312C618.421 219.279 620.751 221.764 622.614 224.766C624.478 227.665 625.409 231.34 625.409 235.792C625.409 240.036 624.581 243.867 622.925 247.283C621.268 250.596 618.991 253.443 616.092 255.824C613.297 258.102 609.984 259.862 606.153 261.104C602.426 262.346 598.492 262.968 594.351 262.968C590.521 262.968 586.69 262.605 582.86 261.881C579.029 261.156 575.561 260.069 572.455 258.619C569.349 257.17 566.813 255.41 564.846 253.34C562.983 251.269 562.051 248.888 562.051 246.196Z" fill="#3FD29D"/>
<path d="M23.9038 123.597H195.768M291.248 123.597C308.718 128.859 315.636 132.455 325.399 139.444M291.248 123.597C301.395 115.717 306.823 110.482 315.336 97.4479C323.153 87.787 328.081 83.7931 338.315 80.4119M291.248 123.597H195.768M325.399 139.444C337.431 130.019 345.977 126.521 364.622 123.597H514.934M325.399 139.444C341.168 125.198 349.987 117.219 347.744 110.205M611.285 123.597H514.934M514.934 123.597C516.347 100.969 514.896 91.6199 503.365 88.2572M503.365 88.2572L499.72 106.719C469.477 87.5117 449.438 83.2264 406.538 90.6343M503.365 88.2572C503.365 38.4958 450.961 21.7539 417.631 56.9583C401.522 81.9073 379.323 82.1036 338.315 80.4119M338.315 80.4119C337.159 60.6423 332.503 52.6184 315.336 45.0724C278.729 -9.83872 212.329 0.968899 191.489 39.5258C177.433 65.5324 180 99.9834 195.768 123.597M212.329 39.5258C240.458 39.5258 234.04 65.04 209.793 61.6328M278.729 67.6548C285.73 65.1639 289.375 62.0079 295.289 52.7583M231.9 110.205C242.316 105.74 246.352 101.396 250.6 90.6343M300.836 88.494C286.336 74.8653 268.818 97.9232 283.8 107.669C298.783 117.415 315.336 102.123 300.836 88.494Z" stroke="#3FD29D" stroke-width="12.6779" stroke-linecap="round"/>
</svg>
